# xmcd
# Copyright (C) 1995-1998 Ti Kan
#
# Track frame offsets:
#       150
#       9513
#       17364
#       27311
#       35208
#
# Disc length: 597 seconds
#
# Revision: 0
# Processed by: cddbd v1.4PL0 Copyright (c) Steve Scherf et al.
# Submitted via: CD-Transfer v1.0
#
DISCID=31025305
DTITLE=Ql - Heimatschutz
DYEAR=2004
DGENRE=
TTITLE0=Ewigi Liäbi
TTITLE1=W. Nuss Vo Bümpliz
TTITLE2=I Schänke Dir Mis Härz
TTITLE3=Heimweh
TTITLE4=Schwan
EXTD=
EXTT0=
EXTT1=
EXTT2=
EXTT3=
EXTT4=
PLAYORDER=
